# AST/ASF file generated using VICON BodyLanguage
# -----------------------------------------------
:version 1.10
:name VICON
:units
  mass 1.0
  length 0.45
  angle deg
:documentation
   .ast/.asf automatically generated from VICON data using
   VICON BodyBuilder and BodyLanguage model FoxedUp or BRILLIANT.MOD
:root
   order TX TY TZ RX RY RZ
   axis XYZ
   position 0 0 0  
   orientation 0 0 0 
:bonedata
  begin
     id 1 
     name lhipjoint
     direction 0.611804 -0.747784 0.257906 
     length 2.29243 
     axis 0 0 0  XYZ
  end
  begin
     id 2 
     name lfemur
     direction 0.34202 -0.939693 0  
     length 7.31159  
     axis 0 0 20  XYZ
    dof rx ry rz
    limits (-160.0 20.0)
           (-70.0 70.0)
           (-60.0 70.0)
  end
  begin
     id 3 
     name ltibia
     direction 0.34202 -0.939693 0   
     length 7.33391   
     axis 0 0 20   XYZ
    dof rx
    limits (-10.0 170.0)
  end
  begin
     id 4 
     name lfoot
     direction 0.122263 -0.335914 0.933924   
     length 1.76083   
     axis -90 7.62852e-016 20   XYZ
    dof rx rz
    limits (-45.0 90.0)
           (-70.0 20.0)
  end
  begin
     id 5 
     name ltoes
     direction 1.53533e-011 -4.2177e-011 1   
     length 0.879206   
     axis -90 7.62852e-016 20   XYZ
    dof rx
    limits (-90.0 20.0)
  end
  begin
     id 6 
     name rhipjoint
     direction -0.646469 -0.721248 0.248754   
     length 2.37677  
     axis 0 0 0  XYZ 
  end
  begin
     id 7 
     name rfemur
     direction -0.34202 -0.939693 0   
     length 7.18623   
     axis 0 0 -20   XYZ
    dof rx ry rz
    limits (-160.0 20.0)
           (-70.0 70.0)
           (-70.0 60.0)
  end
  begin
     id 8 
     name rtibia
     direction -0.34202 -0.939693 0   
     length 7.36567   
     axis 0 0 -20   XYZ
    dof rx
    limits (-10.0 170.0)
 end
 begin
     id 9 
     name rfoot
     direction -0.126681 -0.348054 0.928876   
     length 1.71902  
     axis -90 -7.62852e-016 -20   XYZ
    dof rx rz
    limits (-45.0 90.0)
           (-20.0 70.0)
  end
  begin
     id 10 
     name rtoes
     direction -1.53551e-011 -4.21898e-011 1   
     length 0.857792   
     axis -90 -7.62852e-016 -20   XYZ
    dof rx
    limits (-90.0 20.0)
  end
  begin
     id 11 
     name lowerback
     direction 0.0106509 0.999778 0.0181844   
     length 2.07668   
     axis 0 0 0   XYZ
    dof rx ry rz
    limits (-20.0 45.0)
           (-30.0 30.0)
           (-30.0 30.0)
  end
  begin
     id 12 
     name upperback
     direction -0.00456018 0.999989 -0.000590935   
     length 2.08011   
     axis 0 0 0   XYZ
    dof rx ry rz
    limits (-20.0 45.0)
           (-30.0 30.0)
           (-30.0 30.0)
  end
  begin
     id 13 
     name thorax
     direction -0.00910382 0.999916 -0.00923765   
     length 2.07397   
     axis 0 0 0   XYZ
    dof rx ry rz
    limits (-20.0 45.0)
           (-30.0 30.0)
           (-30.0 30.0)
  end
  begin
     id 14 
     name lowerneck
     direction 0.00171967 0.99778 0.0665733   
     length 1.67556   
     axis 0 0 0   XYZ
    dof rx ry rz
    limits (-20.0 45.0)
           (-30.0 30.0)
           (-30.0 30.0)
  end
  begin
     id 15 
     name upperneck
     direction -0.0143166 0.991302 -0.130828   
     length 1.68462   
     axis 0 0 0   XYZ
    dof rx ry rz
    limits (-20.0 45.0)
           (-30.0 30.0)
           (-30.0 30.0)
  end
  begin
     id 16
     name head
     direction -0.00606378 0.998665 -0.0512995  
     length 1.69269  
     axis 0 0 0   XYZ
    dof rx ry rz
    limits (-20.0 45.0)
           (-30.0 30.0)
           (-30.0 30.0)
  end
  begin
     id 17 
     name lclavicle
     direction 0.9638 0.179341 0.197297  
     length 4.12888  
     axis 0 0 0   XYZ
    dof ry rz
    limits (-20.0 10.0)
           (0.0 20.0)
  end
  begin
     id 18 
     name lhumerus
     direction 1 -4.48972e-011 -2.47351e-027   
     length 5.01834   
     axis -180 -30 -90   XYZ
    dof rx ry rz
    limits (-60.0 90.0)
           (-90.0 90.0)
           (-90.0 90.0)
  end
  begin
     id 19
     name lradius
     direction 1 -4.48965e-011 1.51591e-026   
     length 3.4869   
     axis -180 -30 -90   XYZ
    dof rx
    limits (-10.0 170.0)
  end
  begin
     id 20
     name lwrist
     direction 1 -4.48957e-011 2.70032e-026   
     length 1.74345   
     axis -1.81515e-014 90 90   XYZ
    dof ry
    limits (-180.0 0.0)
 end
  begin
     id 21 
     name lhand
     direction 1 -4.48951e-011 5.40064e-026   
     length 0.76799   
     axis -3.44607e-014 90 90   XYZ
    dof rx rz
    limits (-90.0 90.0)
           (-45.0 45.0)
  end
  begin
     id 22 
     name lfingers
     direction 1 -4.48971e-011 1.08013e-025   
     length 0.619174   
     axis -6.89214e-014 90 90   XYZ
    dof rx
    limits (0.0 90.0)
  end
  begin
     id 23
     name lthumb
     direction 0.707107 -6.34931e-011 0.707107   
     length 0.889013   
     axis -90 45 2.85299e-015   XYZ
    dof rx rz
    limits (-45.0 45.0)
           (-45.0 45.0)
  end
  begin
     id 24 
     name rclavicle
     direction -0.961409 0.252588 0.109054   
     length 4.04305  
     axis 0 0 0   XYZ 
    dof ry rz
    limits (-10.0 20.0)
           (-20.0 0.0)
  end
  begin
     id 25 
     name rhumerus
     direction -1 -4.4897e-011 1.33872e-017  
     length 4.70164   
     axis -180 30 90   XYZ
    dof rx ry rz
    limits (-90.0 60.0)
           (-90.0 90.0)
           (-90.0 90.0)
  end
  begin
     id 26 
     name rradius
     direction -1 -4.48954e-011 1.83844e-026   
     length 3.49911   
     axis -180 30 90   XYZ
    dof rx
    limits (-10.0 170.0)
  end
  begin
     id 27 
     name rwrist
     direction -1 -4.49008e-011 2.70032e-026   
     length 1.74955   
     axis -1.81515e-014 -90 -90   XYZ
    dof ry
    limits (-180.0 0.0)
  end
  begin
     id 28
     name rhand
     direction -1 -4.48916e-011 5.40064e-026   
     length 0.739335   
     axis -3.44607e-014 -90 -90   XYZ
    dof rx rz
    limits (-90.0 90.0)
           (-45.0 45.0)
  end
  begin
     id 29
     name rfingers
     direction -1 -4.48987e-011 1.08013e-025   
     length 0.596071   
     axis -6.89214e-014 -90 -90   XYZ
    dof rx
    limits (0.0 90.0)
  end
  begin
     id 30
     name rthumb
     direction -0.707107 -6.34935e-011 0.707107   
     length 0.855843   
     axis -90 -45 -2.85299e-015   XYZ
    dof rx rz
    limits (-45.0 45.0)
           (-45.0 45.0)
  end
:hierarchy
  begin
    root lhipjoint rhipjoint lowerback
    lhipjoint lfemur
    lfemur ltibia
    ltibia lfoot
    lfoot ltoes
    rhipjoint rfemur
    rfemur rtibia
    rtibia rfoot
    rfoot rtoes
    lowerback upperback
    upperback thorax
    thorax lowerneck lclavicle rclavicle
    lowerneck upperneck
    upperneck head
    lclavicle lhumerus
    lhumerus lradius
    lradius lwrist
    lwrist lhand lthumb
    lhand lfingers
    rclavicle rhumerus
    rhumerus rradius
    rradius rwrist
    rwrist rhand rthumb
    rhand rfingers
  end

#!OML:ASF I:\salsa\salsa 7_09\Patient 1\Session 1\dancermale.ASF
:FULLY-SPECIFIED
:DEGREES
1055
root 0.648343 17.073 -5.32354 -544.714 178.227 -185.49
lowerback 7.44719 -6.19845 4.83541
upperback 1.82501 -7.71707 6.81181
thorax -1.93351 -3.87558 5.08726
lowerneck -12.3989 5.6507 2.64456
upperneck 11.1261 9.07288 -13.2915
head 6.18844 3.55103 -3.80965
rclavicle 5.74488e-014 7.95139e-015
rhumerus -0.384479 62.9378 -99.0663
rradius 91.1429
rwrist -3.40933
rhand 7.36631 5.2944
rfingers 7.12502
rthumb 32.6243 -21.7843
lclavicle 5.74488e-014 7.95139e-015
lhumerus 71.8083 -2.24484 29.2457
lradius 57.0168
lwrist 69.2079
lhand -6.21398 65.5613
lfingers 7.12502
lthumb 19.6266 625.409
rfemur -17.1437 -1.05904 9.67694
rtibia 40.1549
rfoot 9.57968 -9.61868
rtoes -48.1404
lfemur 2.2422 9.06631 -9.17469
ltibia 25.0901
lfoot -29.3856 0.619774
ltoes 55.6355
1056
root 0.659549 17.0352 -5.29828 -544.825 177.605 -185.213
lowerback 6.75031 -5.66999 5.33658
upperback 1.83235 -7.04519 6.47096
thorax -1.67847 -3.53381 4.31649
lowerneck -12.675 5.22779 2.53852
upperneck 11.7851 8.56133 -13.0388
head 6.38309 3.27888 -3.76197
rclavicle -4.57205e-015 1.28812e-013
rhumerus -0.442617 63.1605 -99.1811
rradius 91.0565
rwrist -1.37069
rhand 7.59189 6.37715
rfingers 7.12502
rthumb 32.8389 -20.6569
lclavicle -4.57205e-015 1.28812e-013
lhumerus 70.9585 -1.65337 25.2682
lradius 61.6804
lwrist 69.9227
lhand -1.03612 62.2405
lfingers 7.12502
lthumb 24.5976 629.32
rfemur -17.3608 -1.12895 9.23895
rtibia 41.2454
rfoot 8.93915 -10.2471
rtoes -47.5644
lfemur 2.05301 9.16926 -9.46333
ltibia 25.59
lfoot -29.6769 -0.402112
ltoes 56.9029
1057
root 0.670291 17.0021 -5.27097 -544.845 176.883 -184.905
lowerback 6.31567 -5.09699 5.4255
upperback 1.59313 -6.29674 6.4406
thorax -1.72534 -3.15881 4.14306
lowerneck -12.8759 4.80958 2.10158
upperneck 12.6946 8.14342 -12.757
head 6.64158 3.03143 -3.64468
rclavicle -1.85864e-014 5.08889e-014
rhumerus -1.87292 62.8089 -99.7299
rradius 91.1536
rwrist 0.484873
rhand 8.09407 7.14067
rfingers 7.12502
rthumb 33.3165 -19.7922
lclavicle -1.85864e-014 5.08889e-014
lhumerus 69.4628 -0.934593 22.8741
lradius 66.2364
lwrist 70.4837
lhand 4.53295 59.9062
lfingers 7.12502
lthumb 29.9244 807.507
rfemur -17.6213 -1.14541 8.73189
rtibia 42.3346
rfoot 8.37402 -10.7988
rtoes -47.2363
lfemur 1.77694 9.21227 -9.84491
ltibia 26.0547
lfoot -29.8995 -0.910092
ltoes 57.0341
1058
root 0.682416 16.9714 -5.24153 -544.747 176.077 -184.669
lowerback 5.7765 -4.54476 5.70586
upperback 1.25027 -5.5677 6.29346
thorax -1.84595 -2.79491 3.74696
lowerneck -12.532 4.32997 1.95991
upperneck 13.254 7.54145 -12.5427
head 6.69535 2.74208 -3.625
rclavicle -8.05078e-015 6.83819e-014
rhumerus -4.36678 61.8099 -100.897
rradius 91.3766
rwrist 2.03797
rhand 8.5407 7.61302
rfingers 7.12502
rthumb 33.741 -19.2279
lclavicle -8.05078e-015 6.83819e-014
lhumerus 67.4851 -0.160915 21.0447
lradius 70.8391
lwrist 69.1367
lhand 8.97195 58.7756
lfingers 7.12502
lthumb 34.1506 805.526
rfemur -17.9452 -1.18125 8.2697
rtibia 43.3749
rfoot 7.91397 -11.1943
rtoes -47.0321
lfemur 1.40654 9.03762 -10.2482
ltibia 26.4077
lfoot -30.0715 -1.06103
ltoes 56.7152
1059
root 0.697513 16.9404 -5.21262 -544.751 175.26 -184.422
lowerback 5.30823 -4.00612 6.00402
upperback 1.04579 -4.86405 6.07866
thorax -1.85613 -2.44395 3.27686
lowerneck -12.1902 3.80953 1.84838
upperneck 13.5315 6.82662 -12.2471
head 6.65039 2.41886 -3.59133
rclavicle 3.32964e-015 -6.36111e-014
rhumerus -7.06737 60.3721 -101.863
rradius 91.7264
rwrist 2.8313
rhand 9.05999 7.64038
rfingers 7.12502
rthumb 34.2342 -19.0911
lclavicle 3.32964e-015 -6.36111e-014
lhumerus 65.3107 0.934252 20.0708
lradius 74.9274
lwrist 65.8628
lhand 12.6603 59.2525
lfingers 7.12502
lthumb 37.6449 805.147
rfemur -18.1335 -1.23274 7.77008
rtibia 44.3625
rfoot 7.56702 -11.3013
rtoes -46.7896
lfemur 1.24532 8.69548 -10.7047
ltibia 26.589
lfoot -30.2563 -1.11896
ltoes 56.4617
1060
root 0.711674 16.9121 -5.18551 -544.857 174.457 -184.244
lowerback 4.92496 -3.47148 6.32049
upperback 1.00822 -4.17295 5.85547
thorax -1.72803 -2.0975 2.79365
lowerneck -12.1474 3.29515 1.85945
upperneck 13.8217 6.09123 -11.8879
head 6.66461 2.08583 -3.55393
rclavicle 8.62228e-015 -8.26944e-014
rhumerus -9.70222 58.4248 -102.62
rradius 92.1573
rwrist 2.92961
rhand 9.80746 7.06337
rfingers 7.12502
rthumb 34.9437 -19.5058
lclavicle 8.62228e-015 -8.26944e-014
lhumerus 62.8948 2.29848 19.3449
lradius 78.4902
lwrist 60.3174
lhand 16.3407 59.3809
lfingers 7.12502
lthumb 41.1121 804.262
rfemur -18.2289 -1.32294 7.37021
rtibia 45.3582
rfoot 7.282 -11.3609
rtoes -46.4766
lfemur 1.25016 8.38342 -11.0276
ltibia 26.7024
lfoot -30.4797 -1.0706
ltoes 55.962
1061
root 0.723119 16.8908 -5.1588 -544.964 173.623 -184.195
lowerback 4.61645 -2.90323 6.60986
upperback 0.996989 -3.43394 5.709
thorax -1.59356 -1.72675 2.41259
lowerneck -12.2356 2.72086 1.95052
upperneck 14.1168 5.25434 -11.5044
head 6.69979 1.70634 -3.53024
rclavicle -2.5842e-014 6.20208e-014
rhumerus -12.681 55.9332 -103.28
rradius 92.8491
rwrist 2.87955
rhand 10.562 6.13792
rfingers 7.12502
rthumb 35.6592 -20.2616
lclavicle -2.5842e-014 6.20208e-014
lhumerus 60.7544 3.82907 18.988
lradius 80.8226
lwrist 52.8298
lhand 20.1445 59.1774
lfingers 7.12502
lthumb 44.6697 802.806
rfemur -18.3301 -1.48627 7.1394
rtibia 46.3843
rfoot 7.02579 -11.5311
rtoes -46.3769
lfemur 1.24937 8.28585 -11.0967
ltibia 26.8392
lfoot -30.6035 -0.980423
ltoes 55.0999
1062
root 0.738962 16.867 -5.13413 -545.29 172.899 -183.982
lowerback 4.72437 -2.30533 6.64848
upperback 1.03829 -2.6286 5.55075
thorax -1.61431 -1.32446 2.17758
lowerneck -12.7289 2.24079 1.47452
upperneck 14.8686 4.60426 -10.5288
head 6.94285 1.4071 -3.2027
rclavicle 4.73045e-015 2.70347e-014
rhumerus -15.8401 53.2005 -103.565
rradius 93.5925
rwrist 2.40881
rhand 10.9154 5.00129
rfingers 7.12502
rthumb 35.9941 -21.3167
lclavicle 4.73045e-015 2.70347e-014
lhumerus 58.5211 5.24553 18.2897
lradius 82.0944
lwrist 46.7342
lhand 22.5366 57.9332
lfingers 7.12502
lthumb 46.8904 800.648
rfemur -18.2644 -1.53787 6.71628
rtibia 47.4923
rfoot 6.85093 -11.5853
rtoes -46.7696
lfemur 1.61632 8.35625 -11.2753
ltibia 26.8451
lfoot -30.595 -1.0174
ltoes 54.2955
1063
root 0.755278 16.8433 -5.11126 -545.7 172.215 -183.832
lowerback 4.97784 -1.76577 6.81082
upperback 1.12913 -1.88373 5.35956
thorax -1.66486 -0.952946 1.84681
lowerneck -13.5357 1.92497 0.519855
upperneck 16.0151 4.22004 -9.03668
head 7.37694 1.23687 -2.60266
rclavicle -1.58469e-014 1.90833e-014
rhumerus -19.2997 50.501 -103.75
rradius 94.4705
rwrist 2.18161
rhand 10.8427 3.43834
rfingers 7.12502
rthumb 35.9252 -22.8965
lclavicle -1.58469e-014 1.90833e-014
lhumerus 56.5043 6.42987 17.1149
lradius 81.9866
lwrist 41.0918
lhand 23.3773 55.7354
lfingers 7.12502
lthumb 47.6673 798.102
rfemur -18.1868 -1.46482 6.39078
rtibia 48.6717
rfoot 6.86538 -11.5043
rtoes -47.2406
lfemur 2.05785 8.43561 -11.3661
ltibia 26.8762
lfoot -30.5774 -1.23995
ltoes 53.7837
1064
root 0.768999 16.8229 -5.09255 -546.102 171.595 -183.788
lowerback 5.33505 -1.23059 7.05092
upperback 1.22172 -1.12889 5.18088
thorax -1.76287 -0.578057 1.48423
lowerneck -13.8481 1.53896 0.039043
upperneck 16.4357 3.66623 -8.13695
head 7.51251 1.00476 -2.28829
rclavicle -3.64024e-015 2.06736e-014
rhumerus -22.1645 47.8236 -103.481
rradius 94.6679
rwrist 1.95027
rhand 10.1937 1.53134
rfingers 7.12502
rthumb 35.3101 -24.9517
lclavicle -3.64024e-015 2.06736e-014
lhumerus 54.4395 7.2988 15.4514
lradius 81.5314
lwrist 36.0664
lhand 23.7099 54.1385
lfingers 7.12502
lthumb 47.9741 796.363
rfemur -18.2419 -1.2657 6.22443
rtibia 49.8929
rfoot 7.04243 -11.2437
rtoes -46.39
lfemur 2.40336 8.51014 -11.3499
ltibia 27.0433
lfoot -30.6011 -1.43652
ltoes 53.3537
1065
root 0.778893 16.8065 -5.07637 -546.407 171.02 -183.807
lowerback 5.69412 -0.677413 7.35331
upperback 1.28253 -0.344011 4.96676
thorax -1.88281 -0.190213 1.04293
lowerneck -13.8037 1.06259 0.174395
upperneck 16.2821 2.92069 -7.8861
head 7.41575 0.686788 -2.30553
rclavicle 1.15419e-014 -6.83819e-014
rhumerus -24.6209 45.1991 -102.953
rradius 94.3563
rwrist 1.98875
rhand 9.73451 -0.235671
rfingers 7.12502
rthumb 34.8745 -26.821
lclavicle 1.15419e-014 -6.83819e-014
lhumerus 52.749 7.74734 13.7217
lradius 80.8015
lwrist 31.2148
lhand 24.2215 53.5998
lfingers 7.12502
lthumb 48.4455 795.602
rfemur -18.5388 -0.958468 6.16678
rtibia 51.187
rfoot 7.41428 -10.955
rtoes -43.8422
lfemur 2.53233 8.69667 -11.2341
ltibia 27.4182
lfoot -30.6837 -1.72446
ltoes 52.9288
1066
root 0.783513 16.792 -5.06227 -546.595 170.522 -183.819
lowerback 6.00013 -0.22102 7.58646
upperback 1.31127 0.30542 4.76879
thorax -1.99825 0.129231 0.661421
lowerneck -13.8615 0.730363 0.116086
upperneck 16.3305 2.38665 -7.38364
head 7.4086 0.472268 -2.18697
rclavicle 4.17075e-014 4.77083e-015
rhumerus -26.6478 43.1159 -102.323
rradius 93.6319
rwrist 2.29598
rhand 9.84033 -2.4934
rfingers 7.12502
rthumb 34.9749 -29.0553
lclavicle 4.17075e-014 4.77083e-015
lhumerus 51.2421 7.82059 11.84
lradius 79.6379
lwrist 25.9671
lhand 24.3638 52.1828
lfingers 7.12502
lthumb 48.5764 794.122
rfemur -19.1367 -0.616954 6.20837
rtibia 52.6442
rfoot 7.96057 -10.7443
rtoes -40.3721
lfemur 2.51765 8.87831 -11.1313
ltibia 27.8222
lfoot -30.7581 -1.98931
ltoes 52.6024
1067
root 0.782012 16.78 -5.04701 -546.699 169.989 -183.78
lowerback 6.24685 0.117381 7.67471
upperback 1.2773 0.787929 4.5927
thorax -2.14666 0.363834 0.392041
lowerneck -13.7468 0.51471 -0.237816
upperneck 16.4348 2.02624 -6.61233
head 7.39429 0.349282 -1.91293
rclavicle -1.31695e-015 -5.24792e-014
rhumerus -28.4037 41.565 -101.805
rradius 92.5825
rwrist 2.63927
rhand 9.68295 -4.35923
rfingers 7.12502
rthumb 34.8256 -30.9558
lclavicle -1.31695e-015 -5.24792e-014
lhumerus 50.2551 7.37968 10.1742
lradius 77.9839
lwrist 19.9625
lhand 24.1009 50.5574
lfingers 7.12502
lthumb 48.3344 792.613
rfemur -19.8589 -0.319707 6.2692
rtibia 54.1306
rfoot 7.92521 -10.9661
rtoes -36.6687
lfemur 2.48321 8.677 -11.241
ltibia 28.0184
lfoot -30.754 -1.94373
ltoes 52.2579
1068
root 0.772259 16.7735 -5.02862 -546.759 169.354 -183.773
lowerback 6.46513 0.370145 7.56579
upperback 1.16861 1.14955 4.53339
thorax -2.36541 0.536503 0.359778
lowerneck -13.4471 0.403805 -0.375239
upperneck 16.5198 1.86 -6.38113
head 7.35925 0.286914 -1.83143
rclavicle 1.81639e-014 7.4743e-014
rhumerus -29.9548 40.3826 -101.263
rradius 91.5432
rwrist 3.54103
rhand 10.1798 -6.37231
rfingers 7.12502
rthumb 35.2969 -32.8585
lclavicle 1.81639e-014 7.4743e-014
lhumerus 49.7705 6.64716 8.86639
lradius 75.8056
lwrist 13.8335
lhand 23.9827 49.549
lfingers 7.12502
lthumb 48.2256 791.656
rfemur -20.5476 -0.183739 6.45435
rtibia 55.4868
rfoot 7.54431 -11.4634
rtoes -33.3914
lfemur 2.40544 8.42419 -11.2904
ltibia 28.1495
lfoot -30.7566 -1.91695
ltoes 51.6402
1069
root 0.756494 16.772 -5.00721 -546.811 168.578 -183.823
lowerback 6.67116 0.557835 7.34264
upperback 1.08154 1.41549 4.55464
thorax -2.56477 0.664175 0.480245
lowerneck -13.4449 0.38609 -0.307687
upperneck 16.8286 1.86851 -6.50996
head 7.4621 0.277341 -1.88718
rclavicle -5.11871e-015 3.33958e-014
rhumerus -31.1448 39.4838 -100.509
rradius 90.7125
rwrist 4.76223
rhand 11.0411 -7.14466
rfingers 7.12502
rthumb 36.1131 -33.4333
lclavicle -5.11871e-015 3.33958e-014
lhumerus 49.9424 5.856 8.23804
lradius 73.38
lwrist 7.27027
lhand 24.4621 49.4531
lfingers 7.12502
lthumb 48.6669 791.349
rfemur -21.1043 -0.263922 6.7712
rtibia 56.6413
rfoot 6.29705 -12.1307
rtoes -30.8944
lfemur 2.31013 8.23482 -11.1953
ltibia 28.2498
lfoot -30.7762 -2.04229
ltoes 50.7962
